<?xml version="1.0" standalone="no"?>
<!DOCTYPE svg PUBLIC "-//W3C//DTD SVG 20010904//EN"
 "http://www.w3.org/TR/2001/REC-SVG-20010904/DTD/svg10.dtd">
<svg version="1.0" xmlns="http://www.w3.org/2000/svg"
 width="300.000000pt" height="300.000000pt" viewBox="0 0 300.000000 300.000000"
 preserveAspectRatio="xMidYMid meet">
<metadata>
Created by potrace 1.10, written by Peter Selinger 2001-2011
</metadata>
<g transform="translate(0.000000,300.000000) scale(0.100000,-0.100000)"
fill="#000000" stroke="none">
<path d="M1431 2594 c-12 -15 -21 -37 -21 -49 0 -12 -7 -28 -15 -35 -15 -13
-22 -100 -7 -100 4 0 7 -90 8 -200 0 -110 -1 -200 -2 -200 -1 0 -21 11 -45 24
-116 65 -306 121 -434 128 l-60 3 0 -49 c0 -48 -1 -50 -33 -57 -18 -4 -41 -14
-51 -23 -16 -15 -41 -22 -41 -12 0 27 24 56 52 64 30 7 33 12 36 52 2 25 9 48
15 52 17 11 122 10 196 -3 83 -13 233 -62 286 -94 l41 -24 0 105 -1 104 -65 1
c-36 1 -144 0 -240 -1 -151 -1 -181 -4 -222 -22 -58 -25 -113 -83 -127 -135
-7 -25 -11 -223 -11 -563 0 -590 -2 -571 75 -639 73 -63 44 -61 735 -61 683 0
661 -2 729 56 71 59 69 47 72 649 2 529 2 541 -18 580 -28 52 -67 89 -123 114
-39 17 -72 20 -255 23 l-210 3 -5 -61 c-5 -63 -18 -89 -51 -99 -12 -4 -18 -14
-17 -31 1 -13 4 -24 5 -24 2 0 34 15 71 34 103 52 220 85 326 92 51 4 105 4
120 0 24 -6 26 -11 26 -55 l0 -48 40 -7 c31 -5 41 -11 46 -30 12 -51 1 -59
-34 -26 -21 19 -44 30 -63 30 l-30 0 7 51 7 52 -94 -6 c-114 -6 -240 -41 -366
-101 l-91 -44 -4 70 c-3 64 -1 71 18 79 44 16 54 46 54 157 0 118 -14 162 -59
190 -17 10 -28 22 -25 25 10 10 -17 67 -37 77 -36 20 -86 12 -108 -16z m57
-53 c-7 -11 -18 -21 -25 -21 -19 0 -16 38 5 49 24 14 36 -2 20 -28z m72 -83
c0 -22 -4 -23 -70 -23 -66 0 -70 1 -70 23 0 21 4 22 70 22 66 0 70 -1 70 -22z
m50 -20 c3 -84 0 -220 -5 -228 -15 -25 -20 -3 -20 93 1 129 3 147 15 147 6 0
10 -6 10 -12z m-69 -90 c0 -29 0 -72 -1 -94 -1 -25 5 -47 14 -56 13 -14 13
-18 0 -37 -22 -31 -14 -137 12 -155 15 -12 16 -16 5 -30 -7 -9 -22 -16 -32
-16 -17 0 -18 14 -19 220 0 143 3 220 10 220 5 0 10 -24 11 -52z m-41 31 c0
-5 -4 -7 -10 -4 -7 4 -10 -65 -10 -199 l0 -206 -22 0 -23 0 3 210 3 210 29 0
c17 0 30 -5 30 -11z m-202 -138 c19 -1 22 -6 22 -44 0 -24 -2 -46 -5 -49 -3
-3 -53 10 -110 28 -58 19 -113 34 -124 34 -23 0 -36 16 -18 22 6 3 32 6 57 7
24 1 45 3 46 4 2 2 93 1 132 -2z m570 3 c55 -7 67 -18 30 -27 -13 -3 -54 -16
-93 -30 -38 -14 -73 -23 -78 -20 -7 4 -1 58 10 76 5 9 60 9 131 1z m-1084
-122 c-11 -16 -19 -22 -22 -14 -2 7 4 25 14 40 11 16 19 22 22 14 2 -7 -4 -25
-14 -40z m311 -43 c91 -22 190 -61 253 -98 37 -23 42 -30 42 -61 0 -20 5 -41
12 -48 9 -9 7 -24 -11 -67 l-23 -54 26 -34 c15 -19 37 -61 50 -93 12 -33 30
-72 38 -89 l16 -30 26 59 c14 32 26 62 26 65 0 4 16 34 36 67 l36 59 -20 50
c-26 66 -20 145 11 161 12 6 54 27 92 47 68 34 212 78 305 92 25 3 53 9 63 11
16 5 17 -19 17 -414 l0 -419 -65 -6 c-149 -14 -350 -100 -453 -192 l-61 -56 5
208 c3 115 1 214 -4 221 -5 7 -16 10 -26 6 -17 -6 -17 -22 -12 -223 l7 -216
-38 39 c-107 110 -259 180 -470 217 l-73 12 0 412 0 412 58 -9 c31 -5 93 -18
137 -29z m-240 -454 l0 -385 37 0 c141 0 426 -110 526 -203 36 -34 116 -32
162 3 147 112 311 178 493 196 l67 6 0 384 c0 211 2 384 5 384 4 0 19 -7 36
-15 l29 -16 -2 -467 -3 -467 -185 -6 c-184 -7 -297 -19 -377 -40 -38 -10 -41
-14 -32 -31 8 -15 16 -18 32 -13 12 4 138 10 279 14 l258 6 26 26 26 26 -1
471 c-1 448 2 502 26 478 11 -11 6 -930 -5 -958 -6 -14 -28 -39 -48 -55 l-37
-28 -278 -3 c-228 -2 -279 -5 -289 -17 -9 -11 -33 -15 -82 -15 -64 0 -70 2
-65 19 18 69 -195 121 -503 121 l-160 0 -2 238 c-1 130 -3 342 -3 470 l-1 234
26 13 c14 8 30 14 35 15 7 0 10 -135 10 -385z m-101 -100 c1 -348 -2 -439 -12
-448 -11 -8 -13 14 -12 119 1 71 1 131 0 134 0 5 1 467 1 500 0 8 0 20 -1 25
-1 6 -2 37 -1 70 1 43 4 56 12 48 8 -8 12 -144 13 -448z m793 392 c-2 -6 -29
-13 -60 -15 -49 -2 -57 0 -57 15 0 16 8 18 61 15 39 -3 59 -8 56 -15z m-47
-92 c0 -22 -6 -38 -15 -41 -8 -4 -15 -15 -15 -25 0 -10 7 -19 15 -19 12 0 15
-14 15 -67 l0 -68 -39 79 c-34 70 -37 83 -29 115 15 59 16 61 43 61 22 0 25
-4 25 -35z m55 -18 l21 -53 -26 -41 -26 -41 0 94 c1 52 3 94 6 94 3 0 14 -24
25 -53z m-717 -827 c20 -5 125 -10 232 -10 213 -1 345 -11 363 -29 6 -6 9 -12
6 -14 -2 -1 -139 0 -304 3 l-300 5 -33 25 c-34 25 -62 67 -62 92 0 7 14 -4 30
-24 19 -23 45 -41 68 -48z"/>
<path d="M975 1970 c-11 -18 2 -25 100 -54 50 -15 127 -45 172 -67 84 -40 103
-46 103 -30 0 26 -127 89 -257 127 -45 13 -88 27 -96 30 -8 3 -18 0 -22 -6z"/>
<path d="M1976 1973 c-159 -41 -326 -117 -326 -149 0 -19 17 -18 48 5 39 27
94 50 212 86 70 22 106 38 108 49 3 16 -6 18 -42 9z"/>
<path d="M974 1879 c-10 -17 3 -23 111 -53 55 -16 132 -45 170 -65 39 -20 73
-37 78 -39 4 -2 7 3 7 12 0 26 -71 65 -191 106 -142 47 -166 53 -175 39z"/>
<path d="M1935 1874 c-164 -50 -297 -116 -282 -141 4 -7 35 4 84 28 69 35 200
81 258 91 23 4 27 32 5 35 -8 1 -37 -5 -65 -13z"/>
<path d="M1923 1784 c-82 -23 -232 -89 -267 -116 -11 -8 -16 -20 -12 -27 5 -8
20 -4 49 13 47 28 259 106 287 106 22 0 46 28 34 40 -5 4 -44 -2 -91 -16z"/>
<path d="M970 1785 c0 -8 17 -18 43 -25 97 -24 183 -55 254 -91 42 -21 79 -37
81 -34 23 23 -136 108 -269 144 -89 25 -109 26 -109 6z"/>
<path d="M972 1698 c3 -7 46 -24 97 -39 50 -15 136 -48 191 -75 96 -45 127
-52 101 -20 -48 58 -404 180 -389 134z"/>
<path d="M1907 1689 c-132 -38 -277 -109 -277 -136 0 -18 1 -18 103 31 51 25
128 55 172 67 92 25 106 30 108 44 3 17 -35 15 -106 -6z"/>
<path d="M975 1620 c-11 -17 3 -25 80 -44 97 -25 170 -53 242 -97 59 -35 90
-37 62 -3 -23 28 -134 82 -229 113 -130 41 -147 45 -155 31z"/>
<path d="M1937 1609 c-38 -9 -97 -27 -130 -40 -67 -24 -187 -89 -187 -100 0
-19 23 -18 57 4 52 32 155 72 248 96 81 20 106 35 90 50 -6 4 -40 1 -78 -10z"/>
<path d="M1426 1550 c3 -19 10 -42 16 -50 6 -10 7 -3 2 20 -3 19 -10 42 -16
50 -6 10 -7 3 -2 -20z"/>
<path d="M970 1527 c0 -10 11 -19 28 -22 75 -16 234 -71 291 -102 37 -20 71
-31 80 -28 14 6 14 8 -4 22 -64 48 -264 128 -352 140 -35 5 -43 3 -43 -10z"/>
<path d="M1891 1515 c-94 -27 -233 -89 -256 -115 -24 -27 0 -35 33 -12 37 26
181 80 272 101 52 13 76 23 78 35 5 22 -23 20 -127 -9z"/>
<path d="M970 1446 c0 -10 20 -19 56 -26 82 -17 189 -55 266 -95 75 -39 78
-40 78 -22 -1 29 -180 113 -305 142 -82 19 -95 19 -95 1z"/>
<path d="M1880 1434 c-107 -32 -250 -100 -250 -119 0 -20 17 -19 54 4 42 27
174 75 264 96 46 11 72 23 72 31 0 20 -43 17 -140 -12z"/>
<path d="M975 1380 c-9 -14 3 -30 24 -30 57 0 264 -72 323 -112 32 -22 48 -23
48 -3 0 30 -204 114 -362 149 -15 3 -30 2 -33 -4z"/>
<path d="M1925 1370 c-127 -33 -268 -93 -294 -123 -20 -24 6 -31 37 -9 45 31
131 63 242 92 65 17 105 32 105 40 0 20 -14 20 -90 0z"/>
<path d="M852 1125 c-12 -9 -20 -21 -17 -26 4 -5 52 -9 108 -9 122 0 248 -21
375 -61 96 -31 124 -32 82 -1 -84 60 -240 102 -400 109 -106 4 -128 2 -148
-12z"/>
<path d="M1900 1133 c-86 -16 -190 -48 -244 -73 -86 -41 -147 -98 -68 -64 137
58 312 94 462 94 61 0 110 4 110 9 0 25 -37 36 -134 37 -55 1 -112 0 -126 -3z"/>
<path d="M1146 2444 c-29 -29 -13 -68 25 -62 27 3 38 40 19 64 -16 18 -25 18
-44 -2z"/>
<path d="M1810 2446 c-6 -8 -10 -25 -8 -38 2 -18 9 -23 33 -23 24 0 31 5 33
23 4 25 -13 52 -33 52 -7 0 -18 -7 -25 -14z"/>
<path d="M1480 750 c-33 -21 -15 -320 20 -320 3 0 14 16 23 35 12 25 18 66 19
133 1 66 3 79 5 39 5 -65 23 -69 23 -4 0 56 -9 87 -26 87 -8 0 -14 6 -14 14 0
8 -7 17 -16 20 -19 7 -16 8 -34 -4z m20 -136 c0 -27 -4 -43 -10 -39 -5 3 -10
24 -10 46 0 21 5 39 10 39 6 0 10 -21 10 -46z m11 -103 c7 12 9 12 9 -1 0 -8
-5 -22 -10 -30 -9 -13 -11 -13 -20 0 -12 18 -13 44 -2 54 4 4 9 -2 10 -15 3
-17 6 -19 13 -8z"/>
<path d="M932 573 c-18 -7 -4 -23 19 -23 12 0 19 5 17 12 -5 14 -18 18 -36 11z"/>
<path d="M1025 570 c-8 -12 20 -24 35 -15 6 3 8 11 5 16 -8 12 -32 12 -40 -1z"/>
<path d="M1846 571 c-7 -11 18 -33 27 -24 4 3 7 12 7 20 0 15 -26 18 -34 4z"/>
<path d="M1930 565 c0 -11 7 -15 23 -13 12 2 22 8 22 13 0 6 -10 11 -22 13
-16 2 -23 -2 -23 -13z"/>
<path d="M1651 485 c-1 -44 -5 -87 -9 -95 -8 -17 -1 -16 -159 -18 -64 -1 -113
-5 -109 -9 13 -13 260 -3 274 11 9 9 12 38 9 102 l-3 89 -3 -80z"/>
</g>
</svg>
